/* XPM */
static char *_404e7db1cac449dfeedf403463ca3d1B6tVSETXtSOVB13s[] = {
/* columns rows colors chars-per-pixel */
"16 16 177 2 ",
"   c #505F2C",
".  c #576D26",
"X  c #52642B",
"o  c #53642D",
"O  c #56692B",
"+  c #576C2B",
"@  c #56692C",
"#  c #56682D",
"$  c #57692D",
"%  c #576B2F",
"&  c #596D2B",
"*  c #596B2F",
"=  c #596C2D",
"-  c #5B6F2C",
";  c #5B6E2D",
":  c #5B6F2D",
">  c #596C2F",
",  c #5A6D2F",
"<  c #5B6E2F",
"1  c #5B6F2F",
"2  c #5F7625",
"3  c #5F7626",
"4  c #5F7726",
"5  c #5D7228",
"6  c #5D7329",
"7  c #5E722B",
"8  c #5E7429",
"9  c #5F7628",
"0  c #5F7629",
"q  c #5F772B",
"w  c #5B712C",
"e  c #5D712D",
"r  c #5D722C",
"t  c #5E732C",
"y  c #5E732D",
"u  c #5F732D",
"i  c #5D712F",
"p  c #5E712F",
"a  c #5E722F",
"s  c #5E742C",
"d  c #5F742C",
"f  c #5F762D",
"g  c #5F742F",
"h  c #576B30",
"j  c #596B30",
"k  c #596C30",
"l  c #5A6D30",
"z  c #5B6E30",
"x  c #596C33",
"c  c #5A6D32",
"v  c #5A6D33",
"b  c #5B6F32",
"n  c #5B6F33",
"m  c #5D6F30",
"M  c #5D6F32",
"N  c #5D6F33",
"B  c #5D7130",
"V  c #5E7230",
"C  c #5F7330",
"Z  c #5D7133",
"A  c #5E7132",
"S  c #5E7133",
"D  c #5E7232",
"F  c #5F7332",
"G  c #5F7333",
"H  c #5E7430",
"J  c #5F7430",
"K  c #5F7234",
"L  c #637C23",
"P  c #657F22",
"I  c #627925",
"U  c #637A25",
"Y  c #637A26",
"T  c #677E25",
"R  c #677F25",
"E  c #677E26",
"W  c #687F25",
"Q  c #607728",
"!  c #607729",
"~  c #60742C",
"^  c #60762C",
"/  c #60772D",
"(  c #60762F",
")  c #607828",
"_  c #627928",
"`  c #627929",
"'  c #637A29",
"]  c #60782B",
"[  c #62782B",
"{  c #62792B",
"}  c #63792B",
"|  c #637A2B",
" . c #637C28",
".. c #637C29",
"X. c #637C2B",
"o. c #647D28",
"O. c #647C29",
"+. c #647D29",
"@. c #657E28",
"#. c #657E29",
"$. c #677F28",
"%. c #677F29",
"&. c #647C2B",
"*. c #647D2B",
"=. c #657E2B",
"-. c #62792C",
";. c #63792C",
":. c #62792D",
">. c #637A2C",
",. c #60782F",
"<. c #62782F",
"1. c #63782F",
"2. c #62792F",
"3. c #63792F",
"4. c #647A2F",
"5. c #657C2D",
"6. c #677D2D",
"7. c #657E2C",
"8. c #677F2C",
"9. c #677E2D",
"0. c #657C2F",
"q. c #657D2F",
"w. c #607630",
"e. c #607730",
"r. c #627730",
"t. c #607432",
"y. c #607433",
"u. c #607632",
"i. c #637732",
"p. c #637733",
"a. c #627634",
"s. c #627832",
"d. c #637833",
"f. c #657C33",
"g. c #647934",
"h. c #657A34",
"j. c #677C37",
"k. c #657939",
"l. c #678223",
"z. c #688223",
"x. c #698323",
"c. c #6B8623",
"v. c #6C8623",
"b. c #698025",
"n. c #688325",
"m. c #698325",
"M. c #688026",
"N. c #688226",
"B. c #6B8525",
"V. c #6C8525",
"C. c #6C8626",
"Z. c #6C8823",
"A. c #6D8923",
"S. c #6E8A23",
"D. c #6F8B25",
"F. c #6E8926",
"G. c #6F8C25",
"H. c #688028",
"J. c #688029",
"K. c #688228",
"L. c #698229",
"P. c #698329",
"I. c #68802B",
"U. c #69822B",
"Y. c #6B8428",
"T. c #6C8628",
"R. c #68802C",
"E. c #6B832F",
"W. c #6D852F",
"Q. c #6E8829",
"!. c #6F8929",
"~. c #718C26",
"^. c #718B2B",
"/. c #799729",
"(. c #688030",
"). c #6E8630",
"_. c #6D8533",
/* pixels */
"4 ,.D D t.W x Y D M a +.+.h.Q ~ ",
"C.[ M ( Q ' Q A.8.8.W.( D v.t.P.",
"D d.d.a ~ ; z.( 5.C.u.u.a 0 v.9.",
"w z +.M.x +.; x . ^ [ M.D u.+.Y ",
"D , f ,.P.,.D 5.; ; , +.5.4 5.Q ",
"; D I _.' u.M } M u.D 4 7 z.~ + ",
"+ +.z M $ ,.; ~ a ; B._.D P.~ z ",
"M 7 H D D * u.^.D ,  .a a D h.5.",
"M.+.5.D M E ( D.W j.$ X.a +.M z ",
"5 ^ u.s , a 7 a M.a E d.a z B.D ",
"M.M.X ~.$ D D x !.d.C.s a /.a a ",
"I h.,.& H.B ~ , [ ,.a E.[ 0 * o ",
"5.D 7 5.~ E u.+ M.M [ c.+.M z.A.",
"H P.0 X a ; 7 u.D.u.,.H.u.a P.a ",
"B a E w ,.a ~.u.I a E B.D Q c.D ",
"a H.E , h.D 5 ,.H.!.h s ~.[ ^ I "
};
