/* XPM */
static char *_ba47f64956d4b5fe622518abb7a4ca1Fz0lCEjhPtXNNtsF[] = {
/* columns rows colors chars-per-pixel */
"40 40 12 1 ",
"  c None",
". c #313131",
"X c #526A7B",
"o c #C53983",
"O c #FF62AC",
"+ c #839CAC",
"@ c #A4BDCD",
"# c #FF83CD",
"$ c #C5DEEE",
"% c #FFC5FF",
"& c #E6FFFF",
"* c white",
/* pixels */
"                                        ",
"                                        ",
"                                        ",
"                                        ",
"                                        ",
"                                        ",
"                                        ",
"                                        ",
"                                        ",
"                                        ",
"                                        ",
"                                        ",
"                                        ",
"                                        ",
"                                        ",
"                                        ",
"                                        ",
"                                        ",
"                  ....                  ",
"                ..**&&.                 ",
"              ..**&&$$@.                ",
"             .**&&$$$$@@.               ",
"             .X&*$$$@@@+.               ",
"            .%%%o&@@@@@+.               ",
"            .%.Oo@&@++++.               ",
"            .OoOo@$++++.                ",
"             .oo@@$+oo+.                ",
"              .&&&++O#o+.               ",
"              .**&+oO#o+.               ",
"             .***@+oO#oo.               ",
"             .@**++oOOO#o.              ",
"             .@@@++oOOOOOo.             ",
"             .X@@+oOO#OOOO.             ",
"             .%#XXOO#%#OOO.             ",
"             .%##OOO####OO.             ",
"             .%%##OOO##OOO.             ",
"              .%%###OOOOO.              ",
"               ..OOOOOO..               ",
"                 ......                 ",
"                                        "
};
