/* XPM */
static char *_c9c214499fb4a5e884301691f0e005aSwe1A64VjCRK3ihD[] = {
/* columns rows colors chars-per-pixel */
"39 39 139 2 ",
"   c None",
".  c black",
"X  c #000400",
"o  c #080000",
"O  c #000408",
"+  c #180C00",
"@  c #000410",
"#  c #000829",
"$  c #363739",
"%  c #3F3C39",
"&  c #44382B",
"*  c #423C34",
"=  c #423C39",
"-  c #4A4131",
";  c #424139",
":  c #4A4139",
">  c #4A4539",
",  c #4A4939",
"<  c #524B37",
"1  c #524539",
"2  c #634F2D",
"3  c #735529",
"4  c #634D31",
"5  c #635531",
"6  c #655531",
"7  c #675531",
"8  c #735D39",
"9  c #343B44",
"0  c #393C42",
"q  c #3F3F42",
"w  c #423C42",
"e  c #39414A",
"r  c #2D415E",
"t  c #314152",
"y  c #31415A",
"u  c #3E4A5A",
"i  c #314973",
"p  c #3D5F7F",
"a  c #424142",
"s  c #52575F",
"d  c #6E5C41",
"f  c #63594A",
"g  c #545B65",
"h  c #555C65",
"j  c #525A70",
"k  c #546273",
"l  c #556678",
"z  c #636163",
"x  c #65737B",
"c  c #7E7973",
"v  c #707B7E",
"b  c #896C47",
"n  c #846C49",
"m  c #886B4A",
"M  c #896D4F",
"N  c #867D5F",
"B  c #867F5F",
"V  c #9C864A",
"C  c #9C864E",
"Z  c #9C884C",
"A  c #90845A",
"S  c #868070",
"D  c #978873",
"F  c #90847B",
"G  c #A58A63",
"H  c #A18D6D",
"J  c #A4976E",
"K  c #C69252",
"L  c #C59357",
"P  c #C6925A",
"I  c #C69A5A",
"U  c #CEC37B",
"Y  c #D6C77B",
"T  c #365984",
"R  c #365A86",
"E  c #365D8C",
"W  c #396194",
"Q  c #3F6494",
"!  c #295DA5",
"~  c #476794",
"^  c #476994",
"/  c #687689",
"(  c #7F7F84",
")  c #527EAA",
"_  c #4279BD",
"`  c #4A7DBD",
"'  c #70808B",
"]  c #7B8288",
"[  c #7B828C",
"{  c #4F80B7",
"}  c #4A82BD",
"|  c #4E83BD",
" . c #5D84B5",
".. c #5282BD",
"X. c #738EAD",
"o. c #4C81C0",
"O. c #4F81C0",
"+. c #4F82C0",
"@. c #4A86CE",
"#. c #5286C6",
"$. c #5D8FC0",
"%. c #528ACE",
"&. c #5F90C0",
"*. c #6BB6FF",
"=. c #7BBAF7",
"-. c #73BAFF",
";. c #7BBDFF",
":. c #7BBEFF",
">. c #818081",
",. c #86A3A7",
"<. c #8FAAB5",
"1. c #BDB6AD",
"2. c #CEC78C",
"3. c #CEC3BD",
"4. c #F7E3A5",
"5. c #FFEFAD",
"6. c #FFF3AD",
"7. c #FFEFB2",
"8. c #FFEFB5",
"9. c #9CB2CE",
"0. c #86AEDE",
"q. c #A7BFC2",
"w. c #BABFC5",
"e. c #BDBEC6",
"r. c #C0BFC0",
"t. c #BDC0C5",
"y. c #A5CFDE",
"u. c #A5D3DE",
"i. c #D1D2CB",
"p. c #C6D3D6",
"a. c #D6D3D6",
"s. c #EFEFC6",
"d. c #DEFFFF",
"f. c #FFFFEF",
"g. c #E7F7FF",
"h. c #EFFFFF",
"j. c #FFFFF7",
"k. c #F7FFFF",
"l. c white",
/* pixels */
"                                                                              ",
"                  . .                                                         ",
"                . a e..                                                       ",
"              . a a w.w..   . .                                               ",
"              . a l.l.w.e.. P P .                                             ",
"              . e.e.l.l.( a a P 2 X               . .         . . .           ",
"                . e.t.[ e.a a P I 2 .         . . 7 P .     . l.l.l..         ",
"                  . F 3.e.e.a a K d f O   . . 7 5 L P P . . l.>.a ] l..       ",
"                  . F 1 e.a a a ; ; * * . 7 7 7 L L a P q e.l.a a a l..       ",
"                    . :.a a l.l.l.5 4 D 7 7 5 L P a a a a e.l.[ a >.l..       ",
"                    . :.:.a a w l.l.j.4 a 5 L L a a a ] a e.t.l.l.l..         ",
"                  . :.| :.:.:.;.a a a :.=.= 3 H a a a ] a a e.e.1..           ",
"                  . | :.;.;.;.;.*.$.:.:.l = j.3 P a a ] ] a a a % c .         ",
"                  . ;.;.;.;.;.;.:.:.:.g , , l.l.5 5 a a ] ] ] a & M .         ",
"                . :.:.;.;.;.;.;.;.:.:.:.:., l.l.l.l.7 a a a a a M O           ",
"                . :.:.:.:.:.;.;.q.e :.:.:.:.a l.l.l.l.5 a a a m .             ",
"              . . ) ;.;.W :.;.;.0 d.| :.:.:.a l.l.l.l.l.7 5 m a .             ",
"          . O %.a :.;.;.W :.X.+ g.g.:.:.:.:.a l.l.l.l.l.l.l.8 8 b .           ",
"        . } E E a :.;.;.:.W $ k G i.:.h | :.a l.l.a a w l.l.l.8 b .           ",
"      . +.+.+.a :.:.;.;.;.;.;.:.;.;.u.z 2.x l.l.a :.:.;.e d.l.5 n n .         ",
"      . W W +.a ;.;.;.;.:.:.:.:.;.;.z <.2.i l.a :.:.:.:.q.e l.l.5 n .         ",
"    . #. . .~ w p :.:.W :.:.:.:.g g U U a a h.t :.:.:.:.:.a l.r.5 n .         ",
"    . R ! p.` ` . . ` ;.:.h h h U U a a 8.a t ' | | | :.:.:.a r.5 n .         ",
"    . a.W W . .     . ; 8.8.8.8.w a 7.7.8.8.0 &.:.:.:.| -.-.a e.e.5 .         ",
"      . . .           . a a w a 8.8.7.7.8.a -.-.| :.;.;.&.0 e.e.e.e..         ",
"                        . 4.8.8.7.7.8.8.6.> @.0.:.| -.-.u V a e.e..           ",
"                      . < J Z 8.7.7.8.Z B > l.@.:.:.$.0 u u a e.e..           ",
"                    . } +.a 5.B Z Z Z 8.8.U - f.$.a a ;.;.;.9 9..             ",
"                  . } } o.+.> 5.8.8.8.8.U U S - w *.:.:.;.;./ .               ",
"                  . +.+.+.+.Q 0 y s.Y Y C C ,.> :.;.;.;.;.;.E O               ",
"                  . +.+.+.+.Q _ v y : A U U > u.:.:.;.;.;.;.E %..             ",
"                    . } ` ^ +.+...... . . . . T :.:.;.;.:.W | #..             ",
"                      . a a +.+.r o         . #.W :.:.:.W ` ..#..             ",
"                    . a.a.a.. . .             . #.R W W ..` #..               ",
"                      . . .                     O #.+.O.| #.R .               ",
"                                              . k.s W W j j l.l..             ",
"                                                @ @ l.l.k.# . .               ",
"                                                    . l..                     ",
"                                                      .                       "
};
