/* XPM */
static char *_77cdebe53e8494ba3572ed0692e5d0aROJ70LuCiT0cDyCB[] = {
/* columns rows colors chars-per-pixel */
"32 32 53 1 ",
"  c None",
". c #313131",
"X c #333130",
"o c #313231",
"O c #313232",
"+ c gray20",
"@ c #323334",
"# c #343434",
"$ c #353535",
"% c gray21",
"& c #38716A",
"* c #39726A",
"= c #39736B",
"- c #39746D",
"; c #515151",
": c #525251",
"> c #535251",
", c #515252",
"< c gray32",
"1 c #535352",
"2 c #525353",
"3 c #545251",
"4 c #545452",
"5 c #525354",
"6 c #8A5129",
"7 c #8B5229",
"8 c #8C5229",
"9 c #8D542C",
"0 c #BB6A21",
"q c #BC6A21",
"w c #BD6B21",
"e c #D38B29",
"r c #D48B29",
"t c #CBAB59",
"y c #CCAB59",
"u c #CEAD5A",
"i c #519A9A",
"p c #519B9B",
"a c #529A9A",
"s c #529C9C",
"d c #529C9D",
"f c #71C3F3",
"g c #72C4F4",
"h c #72C5F5",
"j c #73C6F7",
"k c #BBBBBB",
"l c #F3E48A",
"z c #F4E48B",
"x c #F6E68B",
"c c #F7E78C",
"v c #FBFCFC",
"b c gray99",
"n c #FDFDFD",
/* pixels */
"                                ",
"                                ",
"                                ",
"                                ",
"                                ",
"                                ",
"                                ",
"                                ",
"                                ",
"                                ",
"                                ",
"                                ",
"                                ",
"                                ",
"                                ",
"        %...         %..        ",
"       %ihjj@.      %fhj@       ",
"      %fjjjjjd..   %hjjdd.      ",
"      %fjjjjjj2qX. %ghd4=.      ",
"     %hjjjdhjjd2eqXihd5id.      ",
"     %fjj-v%fjd27rq3is5i.       ",
"     %fhjd..fds2b9r3is4.        ",
"      %fjh@7id2kn9rq3i.         ",
"       %2isdd3i2kn9q3i.         ",
"       %i222yx3h2n984.          ",
"        %.lxc3hjh27q.           ",
"          %tu2fjd58q.           ",
"         #&2xc4i22k#            ",
"         %==Xtu22i2.            ",
"          %. %2hss.             ",
"              %i=d.             ",
"               %..              "
};
