/* XPM */
static char *_57796f5f4644795e6110b4a5443e593w5BihStXOXE0RuMZ[] = {
/* columns rows colors chars-per-pixel */
"32 32 53 1 ",
"  c None",
". c #313131",
"X c #333130",
"o c #313231",
"O c #313232",
"+ c gray20",
"@ c #323334",
"# c #343434",
"$ c #353535",
"% c gray21",
"& c #38716A",
"* c #39726A",
"= c #39736B",
"- c #39746D",
"; c #515151",
": c #525251",
"> c #535251",
", c #515252",
"< c gray32",
"1 c #535352",
"2 c #525353",
"3 c #545251",
"4 c #545452",
"5 c #525354",
"6 c #8A5129",
"7 c #8B5229",
"8 c #8C5229",
"9 c #8D542C",
"0 c #BB6A21",
"q c #BC6A21",
"w c #BD6B21",
"e c #D38B29",
"r c #D48B29",
"t c #CBAB59",
"y c #CCAB59",
"u c #CEAD5A",
"i c #519A9A",
"p c #519B9B",
"a c #529A9A",
"s c #529C9C",
"d c #529C9D",
"f c #71C3F3",
"g c #72C4F4",
"h c #72C5F5",
"j c #73C6F7",
"k c #BBBBBB",
"l c #F3E48A",
"z c #F4E48B",
"x c #F6E68B",
"c c #F7E78C",
"v c #FBFCFC",
"b c gray99",
"n c #FDFDFD",
/* pixels */
"                                ",
"                                ",
"                                ",
"                                ",
"                                ",
"                                ",
"                                ",
"                                ",
"                                ",
"                                ",
"                                ",
"                                ",
"        %...         %..        ",
"       %ihjj@.      %hhj@       ",
"      %fhjjjjd..   %fhhdd.      ",
"      %fjjjjjj5q.. %hjd5=O      ",
"     %fjjjdhjjd5rqXijs>id.      ",
"     %fjj-v%hhd57rq3is>iO       ",
"     %fjjd..fdd>b9r3id4.        ",
"      %hjj.7id5kn9rw>d.         ",
"       %>idsd>i>kn9q>i.         ",
"       %i5>>yx4h2b98>.          ",
"        %.lcc4hjj58q.           ",
"          @tu>hjd27qX           ",
"         %&>lc2i5>k%            ",
"         %&=.tu>>i>.            ",
"          %. %>hddO             ",
"              %i=pO             ",
"               %..              ",
"                                ",
"                                ",
"                                "
};
