/* XPM */
static char *_58f4110ff57489ca3a9ff427d2feb7epp5gGvXndubLKezu[] = {
/* columns rows colors chars-per-pixel */
"39 39 102 2 ",
"   c None",
".  c black",
"X  c #000400",
"o  c #080400",
"O  c #000800",
"+  c #080800",
"@  c #000808",
"#  c #000810",
"$  c #000818",
"%  c #000C18",
"&  c #423A28",
"*  c #423635",
"=  c #423836",
"-  c #4D3C31",
";  c #423639",
":  c #423839",
">  c #4D4028",
",  c #424139",
"<  c #363F47",
"1  c #3E3F42",
"2  c #424042",
"3  c #424142",
"4  c #4A4142",
"5  c #42414A",
"6  c #524442",
"7  c #584442",
"8  c #5E494A",
"9  c #5F4A4A",
"0  c #5E4B4A",
"q  c #5D4B4C",
"w  c #525147",
"e  c #604F42",
"r  c #63494A",
"t  c #634D52",
"y  c #635152",
"u  c #79664A",
"i  c #7F635E",
"p  c #4E596B",
"a  c #5A5D63",
"s  c #525D6B",
"d  c #7B6563",
"f  c #B57918",
"g  c #9F6F3E",
"h  c #845D52",
"j  c #9C6D42",
"k  c #9F7042",
"l  c #84655A",
"z  c #83635E",
"x  c #84625D",
"c  c #84635E",
"v  c #83645F",
"b  c #9A7152",
"n  c #A57849",
"m  c #846563",
"M  c #817778",
"N  c #C0923F",
"B  c #E7AE39",
"V  c #E7B13F",
"C  c #FFCE3F",
"Z  c #9F9042",
"A  c #B58C42",
"S  c #B88C42",
"D  c #BB8F44",
"F  c #AC9747",
"G  c #AA9A4C",
"H  c #AC9A4C",
"J  c #BD9242",
"K  c #AA915F",
"L  c #BDA24F",
"P  c #BDA252",
"I  c #BDA05E",
"U  c #BDA062",
"Y  c #C09142",
"T  c #C19142",
"R  c #C39342",
"E  c #CE9E42",
"W  c #C6964A",
"Q  c #CDA55F",
"!  c #E6B042",
"~  c #E6B142",
"^  c #E7B242",
"/  c #EFB242",
"(  c #E7B24A",
")  c #DEBA73",
"_  c #EFC342",
"`  c #FFCF42",
"'  c #F3D442",
"]  c #EFD763",
"[  c #F7DB63",
"{  c #F7DA6B",
"}  c #F7DB6B",
"|  c #FFDF6B",
" . c #FFE373",
".. c #CEBA8C",
"X. c #CEBC8C",
"o. c #FFEF84",
"O. c #F7F3D6",
"+. c #F7F7DB",
"@. c #F7F7DE",
"#. c #FFFFEF",
"$. c #FFF7F7",
"%. c white",
/* pixels */
"                                                                              ",
"                                                                              ",
"                                                                              ",
"                                                                              ",
"                  X X                                                         ",
"              X X 8 X                                                         ",
"            X 8 8 X                                                           ",
"          X 8 8 X                         X X X X                             ",
"        X 8 8 8 X                     X X x x x x X                           ",
"        X 8 0 X                   X X l l } X X X                             ",
"      X 8 r 8 X                 X x x I [ X                                   ",
"      X 8 0 0 3 X             X x l } } X                                     ",
"      X 8 8 3 3 3 X X X     X x x U { X                                   X X ",
"        X 3 ` C C ~ ~ ^ X @ m v v { { X                   X           O O  .O ",
"      X ` ` ` C C ` ~ ^ ^ * m v P { { } X X . .         X } X       X G  .G O ",
"    X ~ ` C C ` ` V V ~ 3 v v l [ { { } } } } F X     X } } X     X } } } X   ",
"  X %.~ ~ C C ~ ~ V V ^ 3 v v l I { { { X X X ] X   X } } } } X . } } } X     ",
"  $ > V V V V V V ^ ^ V V 5 u v v z X X       X X   X L } { { 3 } } } P X     ",
"X > ( V V V V V V 3 3 V V ( 5 3 3 X         X X   X P } L { { } } } } X       ",
"X Q #.^ ~ V V ^ 3 $.: 3 ^ V V V V X               +  .L } } } { } } X         ",
"X Q f 3 ^ V V ^ 3 : M 3 ~ V V V V X             X H H } L X } { } .           ",
"X ~ ^ V V V V V V 3 3 ~ o.o.~ V V J X           X P P X X   X | F X           ",
"  X ^ V V V V ~ V ~ ~ o.o.o.o.V V J X         X P P X       X | +             ",
"    X 3 / ^ 3 0 ^ V V o.o.o.o.^ T E X         X P P X         X               ",
"  X 8 A 3 3 ^ ^ ^ V V ~ o.o.~ T T E E X       X P X                           ",
"  X 8 t ; @.@._ _ ^ ^ ^ ~ 4 S T T ^ q m X     X P X                           ",
"  X 8 t @ 3 @.@.@.' ~ 3 3 / / ^ ^ ^ ^ 7 X       X P X                         ",
"    X X   . O.+.+.@.3 v v n B ^ ^ V V ^ T X     X < s X X X                   ",
"        X w O.+.+.@.3 v v h B 3 ^ V V ^ ~ X       X X p p p X X               ",
"        X T 3 +.+.@.@.3 3 3 3 V V V V ^ r d X         X X X p < X             ",
"      X J T 3 +.+.@.........3 V V V V ^ D 6 6 X             X s X             ",
"      X J N N , ) ....X.X.3 T ^ ^ V V ^ T W & 3 X X       o 1 p X             ",
"        X N N K = 3 X.X.X.3 T T ~ V V T T & % 3 3 3 X X X 1 a X               ",
"          # b n k J X X X X J N N N N J J X   X X p p p p p X                 ",
"      X X - - T R J X       X N N N N J X         X X X X X                   ",
"    X y = 8 8 3 X X           @ : 3 j g g X                                   ",
"      O O X X X             X y : e 3 r g X                                   ",
"                            X y = y = X X                                     ",
"                              O O O O                                         "
};
