/* XPM */
static char *ee200f799c884b72eca99d18252bb7bbIJrWd3ADRKtEwze7[] = {
/* columns rows colors chars-per-pixel */
"32 32 133 2 ",
"   c None",
".  c #2F2F2F",
"X  c gray19",
"o  c #313030",
"O  c #313131",
"+  c #323232",
"@  c #343131",
"#  c #353131",
"$  c #353232",
"%  c #323536",
"&  c #343434",
"*  c #353535",
"=  c #363434",
"-  c #373434",
";  c #343536",
":  c #343637",
">  c gray21",
",  c #373737",
"<  c #383535",
"1  c #393636",
"2  c #383737",
"3  c #393737",
"4  c #3A3737",
"5  c #363839",
"6  c #37393A",
"7  c #383A3B",
"8  c #3A3A3A",
"9  c #393B3C",
"0  c #1C6A6A",
"q  c #505050",
"w  c #515050",
"e  c #515151",
"r  c #525251",
"t  c gray32",
"y  c #555352",
"u  c #555353",
"i  c gray33",
"p  c #555555",
"a  c #585555",
"s  c #585858",
"d  c gray35",
"f  c #5A5858",
"g  c #5B5959",
"h  c #5A5A5A",
"j  c #5C5A5A",
"k  c #5D5B5A",
"l  c #5D5C5B",
"z  c #A04138",
"x  c #A34239",
"c  c #A54239",
"v  c #A7443A",
"b  c #A9443B",
"n  c #AC453B",
"m  c #AC453C",
"M  c #AD453C",
"N  c #AF463D",
"B  c #B2473E",
"V  c #B3473E",
"C  c #B3483E",
"Z  c #B04840",
"A  c #B14841",
"S  c #B14941",
"D  c #B54A42",
"F  c #C74841",
"G  c #C74942",
"H  c #C84840",
"J  c #C84841",
"K  c #C94942",
"L  c #CB4942",
"P  c #CC4942",
"I  c #CD4A42",
"U  c #CD4A43",
"Y  c #CF4A43",
"T  c #CD4C43",
"R  c #D14C43",
"E  c #D04C44",
"W  c #D14D45",
"Q  c #D54D45",
"!  c #D64E45",
"~  c #D74E45",
"^  c #D95047",
"/  c #DC5047",
"(  c #DE5047",
")  c #DF5047",
"_  c #DE5148",
"`  c #DF5249",
"'  c #E05148",
"]  c #E15148",
"[  c #E05249",
"{  c #E15249",
"}  c #EF6948",
"|  c #EE6849",
" . c #F06848",
".. c #F06949",
"X. c #F36948",
"o. c #F26A49",
"O. c #F36A49",
"+. c #F46A49",
"@. c #F56A49",
"#. c #F76B4A",
"$. c #F76C4A",
"%. c #F86B4A",
"&. c #FA6C4A",
"*. c #F86C4C",
"=. c #FB6C4C",
"-. c #FC6D4C",
";. c #FC6F4D",
":. c #FD704D",
">. c #FD704E",
",. c #FD724F",
"<. c #FE7350",
"1. c #FE7450",
"2. c #FE7451",
"3. c #FE7551",
"4. c #FE7552",
"5. c #FEFE2D",
"6. c #F2A342",
"7. c #F6A442",
"8. c #FEB348",
"9. c #FEB448",
"0. c gray71",
"q. c #DFBD81",
"w. c #E6C485",
"e. c #E9C687",
"r. c #F7D69C",
"t. c #FEE2A5",
"y. c #FEE6A8",
"u. c #FEEAAB",
"i. c #CBCBCB",
"p. c #CDCCCB",
"a. c gray80",
"s. c #FDFDFD",
"d. c #FEFEFE",
/* pixels */
"                                                                ",
"                                                                ",
"                                                                ",
"                                                                ",
"                                                                ",
"                                                                ",
"                                                                ",
"                                                                ",
"                                                                ",
"                                        4                       ",
"                                      + 3.+                     ",
"                          . 4         # 3.#                     ",
"                        4 { 3.>     > 3.9.3.>                   ",
"                      4 -.+._ +     + $.5.%.$.>                 ",
"                  4 . ,.=...>       + 6.5.7...9                 ",
"                4 3.3.3.3.k 4         > 5.9.>                   ",
"              X 3.-. .2.%. .' +       + 9.P #                   ",
"              # 3.-.X.3.%.X.3.#         9 ..P 8                 ",
"            4 3.3.{ ,.3.8 3.3.' >         > 3.3.4               ",
"          > -...2.n | 0 d. .{ P t 4       & } 3.+.+             ",
"          9 ,.%.,.,.y 4 d.K { ~ %.3.= #     + 3.=.#             ",
"            9 3.{ 3.,.3._ ) l ' { 3.3.{ 3   4 3.{ { >           ",
"              + h E K a t t e.T q 2.+.K ) q F ' F K 9           ",
"            > c B a t 9 > r.u.q.R k -.i { u E { E +             ",
"          > a.Z B B 7   2 t.u.y.h { ) ) h _ h { ) 6             ",
"          8 v 0.7 ,   > z t w.u H ) P K h F q _ &               ",
"            9 ,       , Z b h d.~ ] ~ a ' ~ i 9                 ",
"                      9 i.B B 9 ) { h ) ' ) >                   ",
"                        : & 9   % h K H _ z &                   ",
"                                  > Z n D &                     ",
"                                  9 d.M a.7                     ",
"                                    : & 9                       "
};
