/* XPM */
static char *c852c3bfcb6f4f22f255765d7a24bdaezoQJ8ty9uzGLAuYZ[] = {
/* columns rows colors chars-per-pixel */
"44 44 115 2 ",
"   c None",
".  c black",
"X  c #080000",
"o  c #000008",
"O  c #000408",
"+  c #080008",
"@  c #000410",
"#  c #000C10",
"$  c #001010",
"%  c #210000",
"&  c #4D272E",
"*  c #442D2E",
"=  c #472C2E",
"-  c #523B23",
";  c #553B28",
":  c #4D3033",
">  c #4A3E37",
",  c #4A3C39",
"<  c #4A3E39",
"1  c #4A383F",
"2  c #733431",
"3  c #001442",
"4  c #423C42",
"5  c #42384A",
"6  c #423C4A",
"7  c #39515A",
"8  c #424142",
"9  c #524852",
"0  c #525352",
"q  c #6B5355",
"w  c #6F5B5E",
"e  c #78725F",
"r  c #42516B",
"t  c #FF5F3C",
"y  c #FF6139",
"u  c #FF613C",
"i  c #9F3F4A",
"p  c #9C3F4F",
"a  c #9A3D52",
"s  c #AD384A",
"d  c #C03D58",
"f  c #C63C5A",
"g  c #8C4847",
"h  c #8E4C4C",
"j  c #9F4047",
"k  c #9C414A",
"l  c #9F404A",
"z  c #9A5642",
"x  c #9A4A54",
"c  c #8C5055",
"v  c #9A5057",
"b  c #9F5458",
"n  c #A54142",
"m  c #A0414A",
"M  c #AC6E44",
"N  c #AA6E4A",
"B  c #A76C62",
"V  c #A17573",
"C  c #CD7254",
"Z  c #C0795A",
"A  c #C07D58",
"S  c #FF6142",
"D  c #CE6163",
"F  c #CE696B",
"G  c #CB6E68",
"H  c #CB6E6B",
"J  c #CE6D6B",
"K  c #D66D6B",
"L  c #CE716B",
"P  c #FFEF3F",
"I  c #B58578",
"U  c #B79075",
"Y  c #C08054",
"T  c #EF935A",
"R  c #FFA842",
"E  c #FFA846",
"W  c #FFA652",
"Q  c #FFA755",
"!  c #FFA25A",
"~  c #FFA65A",
"^  c #F7AA5A",
"/  c #FFAA5A",
"(  c #E78263",
")  c #FF9A63",
"_  c #FF9E63",
"`  c #FFA663",
"'  c #FFA66B",
"]  c #F7B66B",
"[  c #F7B273",
"{  c #FFCB4A",
"}  c #FFEF42",
"|  c #FFEF4A",
" . c #3971BD",
".. c #3973BD",
"X. c #C87983",
"o. c #5F9CA7",
"O. c #C2B69C",
"+. c #DEBA9C",
"@. c #E1AD84",
"#. c #EFAA94",
"$. c #F7A294",
"%. c #E1B99C",
"&. c #DEBAA5",
"*. c #C0BDB5",
"=. c #D6B6BD",
"-. c #FFE3A5",
";. c #FFE7BD",
":. c #FCE5C0",
">. c #FFF3CE",
",. c #FFFBEF",
"<. c #FFF7F7",
"1. c #F7FBF7",
"2. c #FFFBF7",
"3. c #FFFBFF",
"4. c white",
/* pixels */
"                                                                                        ",
"                                                                                        ",
"                                                                                        ",
"                                                                                        ",
"                                                                                        ",
"                                                                              .         ",
"                                                                            . y .       ",
"                                                                            . y y .     ",
"                                                                          . u u y .     ",
"                                                                        . y u u .       ",
"                                                                        . y E S .   .   ",
"                .           . .                                       . y y | S y . W . ",
"              . J .       . j j . .                                   . S } W t t t } . ",
"              . J .         . j j j .       . . .                     . R } W t t W } . ",
"            . J J .       . W 8 l l j .   . W W M +                   . } } } Q P P .   ",
"            . J .       . W W 8 l l j j .   . W ` ` .                   . } } } P P .   ",
"          . G G . .   . W W 8 . j j l l .     . z ( W . . . .           . } } } { .     ",
"          . G W W W . W W G .   . j l l l .     . ( W W J J W . . .       . Q } { .     ",
"        . W Q Q Q Q Q Q W .       . l l j j .   . J 8 8 W W G W Q Q .       o ' .       ",
"      . W W Q Q Q Q Q Q W W . .   . l l j . l . J J 8 ..8 8 W G Q Q W .     o N .       ",
"    . W Q Q Q Q W W W W Q Q G G # * m m .   . J J r ....o.o.7 ] G W Q Q .   . J J .     ",
"    . W Q Q Q Q W G G W Q Q G G L L 8 m .   . J r r ......o.e 7 G G Q Q .     . J .     ",
"      . W W W W q 3.T T W G J J G G Z 5 v $ J J 4 .. . ...... . . W G W W .   . J .     ",
"      . W G W l % 3.4.T G G 8 J G G Z ) : : J 8 ....... . .       . W G W .   . J J .   ",
"    . W W G ( . U 4.G G J J . . J J G G Q Q 8 8 9 9 .               o N W W . 8 G G .   ",
"  . W W W W ( z U U G G J .     . J G G Q Q W W [ 3                 o ' G W 8 8 G G J . ",
". W W W Q Q W W J J 8 8 J 8 . . l 8 G G G W W W Q Q o O               . ` M 8 J G G J . ",
". W W l Q Q W G 8 8 f a J 8 l j m 8 G G G W W 8 Q Q ^ - .               + ` J 8 G G J . ",
"  . J J ' N . . 8 d m H 8 m l . * K l l W W Q Q 8 8 W W / @             . . ! A 8 J J . ",
"    . . o o 4.. d d l G 8 l .   # h ;.;.k l Q Q W W 8 W / ; .         . J J 5 ! 8 J .   ",
"            . 1.s s K * w X     . ;.:.:.:.:.n @.W W 8 W _ 4 J . O O . j L G F 4 J J .   ",
"            . 0 X.2.# h =.X     . ;.:.:.:.:.-.n 8 8 W W 4 A J J & x j l i H c F J .     ",
"              . . .   . .     . J 8 :.:.:.:.;.8 C k Q W 8 W G G 4 b l l J i B B .       ",
"                            . J J 8 :.:.:.:.;.8 a ~ G W 8 W W G D 4 l l k G $.X         ",
"                            . J G G 4 #.;.;.%.%.8 ,.< >.8 W W W J 8 +.+.+.. .           ",
"                            . J G G I 4 +.+.%.%.*.8 O., W W W G J 8 . . .               ",
"                              . J J G G 8 8 +.+.&.> W W W W W G J .                     ",
"                                X g G G J J < o . . G W W l G G .                       ",
"                              . V V i l l . .     . J J G G G G .                       ",
"                            . 4.2 <.H H .           . J G G G G J .                     ",
"                              . . . . .               . H G G G J .                     ",
"                                                    . 4.i i G G .                       ",
"                                                      . 0 1.0 1..                       ",
"                                                        . . . .                         "
};
