/* XPM */
static char *_b0fd842b98e4d55f0624d919de82d36Sapdwejf0XxLUPfS[] = {
/* columns rows colors chars-per-pixel */
"32 32 174 2 ",
"   c None",
".  c #2F2F2F",
"X  c gray19",
"o  c #313131",
"O  c #303132",
"+  c #313233",
"@  c #323232",
"#  c gray20",
"$  c #333334",
"%  c #333434",
"&  c #323435",
"*  c #333536",
"=  c #343434",
"-  c #353535",
";  c #343536",
":  c #343636",
">  c #343637",
",  c #353637",
"<  c gray21",
"1  c #373636",
"2  c #393736",
"3  c #353739",
"4  c #363739",
"5  c #373739",
"6  c #37373A",
"7  c #373939",
"8  c #36393A",
"9  c #373A3B",
"0  c #39393A",
"q  c #393B3C",
"w  c #674827",
"e  c #694928",
"r  c #6A4A28",
"t  c #714E2C",
"y  c #704E2D",
"u  c #74502D",
"i  c #74502E",
"p  c #765331",
"a  c #4E4E4E",
"s  c gray31",
"d  c #505050",
"f  c #505051",
"g  c #535351",
"h  c #515153",
"j  c #535353",
"k  c gray33",
"l  c #555555",
"z  c #565656",
"x  c #575756",
"c  c gray34",
"v  c #585858",
"b  c #595858",
"n  c #585859",
"m  c gray35",
"M  c #5A5A59",
"N  c #5B5B59",
"B  c #58595A",
"V  c #59595A",
"C  c #595A5B",
"Z  c #5A5A5A",
"A  c #5B5B5B",
"S  c #5C5C5B",
"D  c #5B5B5C",
"F  c gray36",
"G  c #8C633A",
"H  c #91683E",
"J  c #95693D",
"K  c #986B3E",
"L  c #AD7F48",
"P  c #B4834A",
"I  c #B9884C",
"U  c #C38E4F",
"Y  c #CFB553",
"T  c #D8BE57",
"R  c #D9BF57",
"E  c #DBC058",
"W  c #DCC258",
"Q  c #3F5695",
"!  c #3F5796",
"~  c #405695",
"^  c #445C9C",
"/  c #445DA0",
"(  c #475EA3",
")  c #4660A5",
"_  c #4860A5",
"`  c #4862A8",
"'  c #4963AA",
"]  c #5E76C5",
"[  c #6076C5",
"{  c #6076C6",
"}  c #6178C9",
"|  c #627ACB",
" . c #667ED2",
".. c #667FD3",
"X. c #667FD4",
"o. c #6881D8",
"O. c #6981D8",
"+. c #6881D9",
"@. c #6982DA",
"#. c #6983DB",
"$. c #6A84D9",
"%. c #6B84DC",
"&. c #6A84DD",
"*. c #6B85DD",
"=. c #6B85DE",
"-. c #6B85DF",
";. c #6E88DF",
":. c #6D86E0",
">. c gray67",
",. c gray74",
"<. c #E9DB8D",
"1. c #FAEA95",
"2. c #FCF099",
"3. c #FDF39C",
"4. c #9EBEC5",
"5. c #9EBEC6",
"6. c #8D9DEB",
"7. c #8E9EEC",
"8. c #8E9EED",
"9. c #8FA0F0",
"0. c #91A2F3",
"q. c #92A3F4",
"w. c #92A4F5",
"e. c #95A6F9",
"r. c #97A8F9",
"t. c #97A8FB",
"y. c #99AAFC",
"u. c #9AABFC",
"i. c #9BACFD",
"p. c #9BADFD",
"a. c #9CADFE",
"s. c #9DAFFE",
"d. c #9EB0FE",
"f. c #9EB1FE",
"g. c #9FB2FE",
"h. c #A0B3FE",
"j. c #A0C0C7",
"k. c #A0C1C9",
"l. c #A2C2CB",
"z. c #A4C4CC",
"x. c #A5C5CE",
"c. c #A5C6CF",
"v. c #A7C9D1",
"b. c #A9CAD2",
"n. c #AACCD3",
"m. c #ADCFD8",
"M. c #B0D3DC",
"N. c #B1D3DC",
"B. c #B1D4DD",
"V. c #B2D4DD",
"C. c #B2D6DE",
"Z. c #B3D7DF",
"A. c #C0C0C0",
"S. c gray76",
"D. c #CEDFEE",
"F. c #CFDFEE",
"G. c #D0E0F1",
"H. c #D4E6F6",
"J. c #D7E8F8",
"K. c #D8E9F9",
"L. c #D9EAFA",
"P. c #D9EAFB",
"I. c #DBECFB",
"U. c #DCEDFC",
"Y. c #DEF0FC",
"T. c #DFF1FD",
"R. c #E5F7FE",
"E. c #E6F8FE",
"W. c #E7F9FE",
"Q. c #E8FAFE",
"!. c #F9F9F9",
"~. c #FCFCFD",
"^. c #FEFEFE",
"/. c white",
/* pixels */
"                                                                ",
"                                                                ",
"                                                                ",
"                                                                ",
"                                                                ",
"                                                                ",
"                                                                ",
"                                                                ",
"                                                                ",
"                                                                ",
"              5                                                 ",
"            . T.@                                               ",
"            7 W.0                 0 =                           ",
"          = k.@.U.@           $ = P.@                           ",
"          = j.$.I.X         = G.R.x.X         @ $ =             ",
"          q N.C.A 7 5 5   = Q.W.h.=         0 Q.Q.Q.0           ",
"            X Z t.8.u.X.[ $ P.] N.@       @ W.H.D.R.H.X         ",
"          $ | s.u.9.s.u.s R.X.k.Z @       $ W.P.g R.x.@         ",
"          5 d.h.d.d.h.h.Z R.;.C.C.2     = W.Q.R.N.D Z q         ",
"        $ p.8.s.u.8.u.= Q Z v.4.v P @   $ F.R.l g N.=           ",
"        q s.0.d.+.0.& A.^ *.l l p I G = n.x.Z U.P.=             ",
"          = d.h.:.` = /./.*.Z /./.t U Z N.C.D Q.R.q             ",
"          = ] y.e.8.H /.~ _ k d /.e L J d 4.C.k..               ",
"        # *.@ @.( | @.@.g v p.w.Z /.e u l z.C.b.=               ",
"        q A.@.q Z Z F S E S d.d.*./.y J Z m.C.q                 ",
"          7 &   = <.2.1.a /.r.6.l !.e J s & q                   ",
"                  & E E l *.A.x Z ,.y p 7                       ",
"                & ) D Z 3.S A 3.D Z A.=                         ",
"                5 Q / k $ T Y g s.g >.8                         ",
"                  5 8 8   q c t.d.@.@                           ",
"                            q  .` @.5                           ",
"                              & 8 &                             "
};
