/* XPM */
static char *_73bfe71c4c64e68f652de97797f5d34BgQb2H1ebZnfrUH8[] = {
/* columns rows colors chars-per-pixel */
"43 43 157 2 ",
"   c None",
".  c black",
"X  c #080000",
"o  c #000008",
"O  c #000408",
"+  c #080008",
"@  c #100800",
"#  c #001008",
"$  c #080010",
"%  c #100010",
"&  c #283339",
"*  c #5A2431",
"=  c #522E36",
"-  c #423439",
";  c #4A3C39",
":  c #523636",
">  c #523C31",
",  c #523039",
"<  c #31472B",
"1  c #2E4B36",
"2  c #364733",
"3  c #314936",
"4  c #4A4139",
"5  c #2C3B47",
"6  c #393C4A",
"7  c #4A3442",
"8  c #4A3C42",
"9  c #423C4A",
"0  c #314142",
"q  c #394142",
"w  c #39454A",
"e  c #39514A",
"r  c #294952",
"t  c #395152",
"y  c #3D7352",
"u  c #3F7352",
"i  c #39755A",
"p  c #39556F",
"a  c #315573",
"s  c #395373",
"d  c #395570",
"f  c #395573",
"g  c #365C73",
"h  c #29616B",
"j  c #424042",
"k  c #424142",
"l  c #424542",
"z  c #42514A",
"x  c #4D5555",
"c  c #52555A",
"v  c #675B5E",
"b  c #466D56",
"n  c #476F58",
"m  c #427152",
"M  c #417252",
"N  c #427352",
"B  c #427552",
"V  c #497352",
"C  c #4F7352",
"Z  c #42596B",
"A  c #415E73",
"S  c #4F637B",
"D  c #786562",
"F  c #78646D",
"G  c #8C3839",
"H  c #83692D",
"J  c #8B6D3C",
"K  c #946735",
"L  c #946834",
"P  c #946935",
"I  c #89713C",
"U  c #917039",
"Y  c #9F7C3C",
"T  c #BD3C5A",
"R  c #C6385A",
"E  c #9C4142",
"W  c #AA4B5D",
"Q  c #AC4E5D",
"!  c #866D41",
"~  c #867041",
"^  c #A45467",
"/  c #916A75",
"(  c #B57378",
")  c #CE4552",
"_  c #C05265",
"`  c #FF617B",
"'  c #55955D",
"]  c #5A925D",
"[  c #5E905E",
"{  c #4F9562",
"}  c #4E966B",
"|  c #4A9A6B",
" . c #4C996E",
".. c #5A9062",
"X. c #52966B",
"o. c #629B7B",
"O. c #7BD773",
"+. c #7ED670",
"@. c #7BDB7B",
"#. c #AD8A39",
"$. c #B58A39",
"%. c #A59242",
"&. c #FFA673",
"*. c #80D773",
"=. c #84D773",
"-. c #84D77B",
";. c #FFCF52",
":. c #F7D35A",
">. c #FFD35A",
",. c #31799C",
"<. c #657983",
"1. c #FF718C",
"2. c #FF758C",
"3. c #FF7A8B",
"4. c #FF7B8B",
"5. c #FF7C8C",
"6. c #FF7D8C",
"7. c #5F9B9C",
"8. c #65858B",
"9. c #708B9F",
"0. c #528AAD",
"q. c #528EAD",
"w. c #558DAC",
"e. c #558DAD",
"r. c #568EAD",
"t. c #5A8AAD",
"y. c #73CB94",
"u. c #7BD39C",
"i. c #7BCFBD",
"p. c #73CBC6",
"a. c #7BCFC0",
"s. c #78CEC3",
"d. c #A1919C",
"f. c #9AAAAA",
"g. c #C5949C",
"h. c #C29E9F",
"j. c #E28B98",
"k. c #F78294",
"l. c #F78E94",
"z. c #F78AA5",
"x. c #DEAAB5",
"c. c #C6B6BD",
"v. c #84DB84",
"b. c #BDBEC6",
"n. c #84CFC6",
"m. c #9CC7C6",
"M. c #A1C2C5",
"N. c #AFC1CB",
"B. c #FFC7CE",
"V. c #FFCFCE",
"C. c #FFDFD6",
"Z. c #FFE7DE",
"A. c #DEFFFF",
"S. c #E7FFFF",
"D. c #FFF7FF",
"F. c #F7FFFF",
"G. c white",
/* pixels */
"                                                                                      ",
"                                                                                      ",
"                                                                                      ",
"                                                                                      ",
"                                    . . . . .                                         ",
"                                . . 4.Z.V.h.k.#                                       ",
"                        . . . . W 1.4.4.8 8 : : .       . . . .                       ",
"                      . 4.4.Z.4.6.T &.k ;.J ;.~ >.X O O 4.4.Z.4.. . .                 ",
"                  . . 6.4.Z.Z.Z.6.6.k &.J > 4 4 H >.= k.4.Z.Z.Z.6.6.6..               ",
"                . 6.Z.4.6.6.6.T T T k &.P :.P :.! ;.7 ^ T 6.6.6.5.5.Z.Z..             ",
"                  . 4.4.T T T 6.6.6.&.k :.:.:.:.;.; 2.2.6.T T T 6.5.4.4.6..           ",
"                    X Q 5.5.5.5.4.4.6.6.k k k k 7 ^ 6.6.5.6.4.4.R R 1.. .             ",
"                  . 2.2.5.5.6.5.Z.Z.6.k k k 6.6.2.2.T T 5.5.4.Z.C.j.W .               ",
"              . . 6.4.Z.Z.4.4.Z.Z.. . . K k g.B.Z.4.5.5._ _ 6.6.5.5.4.4..             ",
"            . 6.6.6.Z.Z.Z.4.4.4..     . K K , g.4.4.5.5.` - k 6.6.5.Z.Z.Z..           ",
"              . 6.6.6.5.5.5.6..     . Y K %.k 6.5.5.4.Z.Z.Z.k k z 6.Z.Z.6.6..         ",
"                . . 5.5.6.6..       . Y %.L k 6.4.6.4.4.Z.Z.6.k z z 4.4.6..           ",
"                    X 1 6.z y . . . k K L L I k 4.Z.Z.4.5.5.5.5.k u k k .             ",
"                . . M M z z y y u u k k %.P #.k 4.Z.Z.Z.5.5.5.5.k M B y u .           ",
"            . . u u u u u u k k k b u k U $.K k g.B.B.g.6.6.l.e M M . . .             ",
"          . u y k k u k k k X.} | k k k ; U K K , g.g.= 6.k e D 3 X                   ",
"            . j q.q.w @.O.O.=.M B B } k k k k k k k k } l n X.X.=.=.. . .             ",
"              . k k ....{ i N =.O.' } } } k k k } } X.}  . .M M N N =.=.=..           ",
"            + v.*.O.=.M N =.=.=.O.*.B ' } } k } X.X.M X.X.O.O.{ *.*.N M O.O.. .       ",
"          . 3 ..X.X.N =.=.=.=.M *.*.O.B } j j j X.M X.X.O.+.i O.*.*.=.=.i { =.=..     ",
"        + < *.*.=.N *.*.*.*.+.+.B =.u.j j i.i.i.k k 9 y.O.C =.=.*.X.*.*.=.=.*.*.=..   ",
"      . =.=.*.*.=.=.*.*.*.*.X.*.=.B j u.i.i.E E 6.k o.9 q q k =.X.O.*.*.M =.*.*.=..   ",
"      . B y X.+.=.=.=.N =.=.@...j j a.a.n.) 5.5.z.t w.w.w.w.q.k 9 y.O.V *.*.X.+.V O.. ",
"    . i.k k O.+.=.B =.=.B =.l l i.i.a.a.n.( 5.5.t F w.w.w.w.q.q.o.9 0 V *.*.X.O.V 0 . ",
"    . i.i.k =.=.j l =.=.j j a.a.a.a.a.a.s.q.<.x.k q.w.w.w.w.w.w.q.s.7.6 k k 2 -.u .   ",
"  . i.i.i.i.k k i.i.j j i.i.a.a.a.a.a.a.s.s.d.h q.q.w.w.w.w.w.w.s.s.p.p.w.q.2 % .     ",
". k a.a.a.a.a.i.a.a.a.a.s.s.q.q.a.a.a.a.a.a.s.q.w.w.a.i.w.w.q.q.i.i.s.s.w.w.q..       ",
". k a.a.a.a.a.a.a.a.a.a.s.q.s.s.s.i.a.a.a.a.s.s.w.i.a.a.i.w.k q.p i.s.q.w.w.q..       ",
". d k i.a.a.a.a.a.a.a.a.q.s.i.i.f.x r M.a.a.s.s.7.p.a.a.s.s.k q.d r.w.w.w.i.g .       ",
". p k i.a.a.a.a.a.a.a.a.q.s.i.k . S.A.8.a.a.s.q.6 p.a.a.s.q.r.q f r.w.w.w.w.q..       ",
". p k m.a.a.a.a.a.a.a.a.i.i.* / 4.G.G.r.i.w.w.q.j q.s.s.r.r.t.& . q.9.a 9.a .         ",
"  . m.k a.a.a.a.a.a.i.s.i.k D.D.G.G.w.w.w.w.q.k q.q.q.q.w.a.S X   . a N.a N..         ",
"    . . i.i.i.i.a.a.s.s.s.s.w.w.r.r.w.w.0.0.Z 5 w.w.w.w.r.r.q..     . . . .           ",
"        . i.i.d a.a.s.q.q.q.w.w.w.f f f g . . . w.w.w.a.f r.q..                       ",
"          . . q.q.w.0.0.,.S s s v v b.. .     . w.r.r.r.w.w..                         ",
"              . . . . g S G E E c.X .       . b.f w.w.d w.w..                         ",
"                      . . . . . .           . . F.c c F.d .                           ",
"                                                o o o o .                             "
};
