/* XPM */
static char *_4c19cc0bc8a4992e1d6d51b8faf45a6YElUuSpYuXZkbR3y[] = {
/* columns rows colors chars-per-pixel */
"32 32 39 1 ",
"  c None",
". c #313131",
"X c #313231",
"o c #323332",
"O c gray20",
"+ c #323334",
"@ c #333435",
"# c #437239",
"$ c #427339",
"% c #42743A",
"& c #515151",
"* c #515251",
"= c gray32",
"- c #525352",
"; c gray33",
": c #BA4941",
"> c #E44941",
", c #518A51",
"< c #518B51",
"1 c #528B52",
"2 c #528C52",
"3 c #6AAB51",
"4 c #6AAC51",
"5 c #6AAC52",
"6 c #6BAD52",
"7 c #629A62",
"8 c #629B62",
"9 c #639C63",
"0 c #659D65",
"q c #79CB79",
"w c #7ACC79",
"e c #7ACC7A",
"r c #7ACD7A",
"t c #7BCE7B",
"y c #BBBCBB",
"u c #FBFBFB",
"i c #FCFDFC",
"p c #FEFCFC",
"a c white",
/* pixels */
"                                ",
"                                ",
"                                ",
"                                ",
"                                ",
"                                ",
"                                ",
"                                ",
"                                ",
"                                ",
"                  @ +           ",
"                 @eXeX          ",
"                @X3e6X          ",
"              @X3$$5$5XX        ",
"             +35$4$5$56$X       ",
"         @  +,5$46$56$56$X      ",
"        @eoX-,#,5$4666$52X      ",
"        @eee0--,2$4666$22X      ",
"        @et0$$7-,$<222$,2X      ",
"       @eee$$$w9---,2,$,X       ",
"       @7eettttttt-,1#-X        ",
"      @:$ett9tttt-7---7X        ",
"      oettt$e-X-t99999$$X       ",
"       @etttX.ui099-79$$X       ",
"       @7eteo>i099$$-799X       ",
"        @X709907-7$$-7yO        ",
"          +XXXXX7979-XX         ",
"               @u0i;X           ",
"                @XXX            ",
"                                ",
"                                ",
"                                "
};
