/* XPM */
static char *_3be7792634641fb8a9f5a2251ce1a0eKe7M4fK49zBDXrGp[] = {
/* columns rows colors chars-per-pixel */
"32 32 39 1 ",
"  c None",
". c #313131",
"X c #313231",
"o c #323332",
"O c gray20",
"+ c #323334",
"@ c #333435",
"# c #437239",
"$ c #427339",
"% c #42743A",
"& c #515151",
"* c #515251",
"= c gray32",
"- c #525352",
"; c gray33",
": c #BA4941",
"> c #E44941",
", c #518A51",
"< c #518B51",
"1 c #528B52",
"2 c #528C52",
"3 c #6AAB51",
"4 c #6AAC51",
"5 c #6AAC52",
"6 c #6BAD52",
"7 c #629A62",
"8 c #629B62",
"9 c #639C63",
"0 c #659D65",
"q c #79CB79",
"w c #7ACC79",
"e c #7ACC7A",
"r c #7ACD7A",
"t c #7BCE7B",
"y c #BBBCBB",
"u c #FBFBFB",
"i c #FCFDFC",
"p c #FEFCFC",
"a c white",
/* pixels */
"                                ",
"                                ",
"                                ",
"                                ",
"                                ",
"                                ",
"                                ",
"                                ",
"                                ",
"                                ",
"                                ",
"                                ",
"                                ",
"                  @ @           ",
"                 +qXqX          ",
"                @X3t6X          ",
"              @X3$$3$3XX        ",
"             +36$6$6$66$X       ",
"         @  +<3$36$36$36$X      ",
"        @qX.-<#<6$6666$32X      ",
"        @qtt9--<<$3666$<2X      ",
"        @qt0$$7-<$<<22$<2X      ",
"       @qtt$$$q0---<22$<X       ",
"       +7ttttttttt-<2$-X        ",
"      @:$qtt7tttt-7---7X        ",
"      +qttt$q-X-t99999$$X       ",
"       @qtttXXui077-79$$X       ",
"       @7tttO>i099$$-770X       ",
"        @X709970-7$$-7yX        ",
"          +XXXXX7999-XX         ",
"               @u0i;X           ",
"                +XXX            "
};
