/* XPM */
static char *c3520d8506b447fa929d1c4a704a9ea6wx4gifXC7kdclX8D[] = {
/* columns rows colors chars-per-pixel */
"32 32 113 2 ",
"   c None",
".  c #2F2F2F",
"X  c gray19",
"o  c #313131",
"O  c #323232",
"+  c #343434",
"@  c #353535",
"#  c gray21",
"$  c #376737",
"%  c #386838",
"&  c #396A39",
"*  c #3A6C3A",
"=  c #3A6D3A",
"-  c #3C713C",
";  c #3C723C",
":  c #3D733D",
">  c #3E743E",
",  c #3E753E",
"<  c #206F5F",
"1  c #207060",
"2  c #217261",
"3  c #217464",
"4  c #227465",
"5  c #227666",
"6  c #227767",
"7  c #237B6A",
"8  c #237C6A",
"9  c #247D6B",
"0  c #247E6C",
"q  c gray31",
"w  c #505050",
"e  c #515151",
"r  c gray32",
"t  c #535353",
"y  c #565656",
"u  c #585858",
"i  c gray35",
"p  c #5A5A5A",
"a  c #983841",
"s  c #993841",
"d  c #9A3842",
"f  c #A23B45",
"g  c #A93E47",
"h  c #AB3E48",
"j  c #B85058",
"k  c #B95058",
"l  c #C0535C",
"z  c #C1545C",
"x  c #C4555D",
"c  c #CB5961",
"v  c #CD5961",
"b  c #CD5A63",
"n  c #CF5A63",
"m  c #E26169",
"M  c #ED666D",
"N  c #F06770",
"B  c #F76A73",
"V  c #F96B74",
"C  c #FA6B74",
"Z  c #FB6C75",
"A  c #FC6C75",
"S  c #4F884F",
"D  c #508850",
"F  c #508950",
"G  c #528B52",
"H  c #538E53",
"J  c #548F54",
"K  c #599759",
"L  c #599859",
"P  c #5A985A",
"I  c #5A995A",
"U  c #6DB154",
"Y  c #71B556",
"T  c #71B756",
"R  c #72B856",
"E  c #73BA59",
"W  c #74BC59",
"Q  c #75BC5A",
"!  c #75BD5A",
"~  c #408F7F",
"^  c #419182",
"/  c #429182",
"(  c #439585",
")  c #439685",
"_  c #449888",
"`  c #449989",
"'  c #459B8B",
"]  c #469C8B",
"[  c #469F8D",
"{  c #479F8D",
"}  c #47A08E",
"|  c #47A18F",
" . c #48A18F",
".. c #48A290",
"X. c #68B8A0",
"o. c #68B8A1",
"O. c #6ABAA3",
"+. c #6BBDA5",
"@. c #6CBFA7",
"#. c #6FC4AB",
"$. c #71C7AE",
"%. c #72C8AF",
"&. c #73CAB1",
"*. c #73CBB1",
"=. c #74CCB2",
"-. c #74CDB3",
";. c #75CDB3",
":. c #75CFB4",
">. c gray77",
",. c #CACACA",
"<. c gray81",
"1. c #FEFEFE",
"2. c white",
/* pixels */
"                                                                ",
"                                                                ",
"                                                                ",
"                                                                ",
"                                                                ",
"                                                                ",
"                                                                ",
"                                                                ",
"                                                                ",
"                                                                ",
"                                                                ",
"                                                                ",
"                              # # #                             ",
"                            # d N C X                           ",
"                          # v m f C m #                         ",
"                          # C v h A C i # # #                   ",
"                      @ . z M a M C j z y F J #                 ",
"                #   + > e x x a x v k z u w +                   ",
"              # :.p P P > p n j n n v i I ! # #                 ",
"              X ;.X.r i D J i k z i e = - % U T .               ",
"              X :.+.$.{ e y i e y ! & T E & - : X               ",
"            # ;.:.;.0 9 0 0  .i p i K ! > ! ! > ! #             ",
"            . ( ;.X.O.7 1 ) &.X.#.&.q J - F * T $ #             ",
"          # l 5 :.2 $.;.+.%.;.+.' i e y i e - K F #             ",
"          # v :.;.&.;. .*.;.;.} i i { ....{ i i y #             ",
"          # O.O.;.X.2 %.e X &.X.) { ^ e ' < 4 { ~ #             ",
"            X &.;.$.$.# X 2.;.' { 0 5 { i _ { } X               ",
"            #  .;.&.# A V 2...{ ..0 7 ..# ,.} <.#               ",
"              X # ( ^ { ~ ( { q ) { ~ X   . X #                 ",
"                  X + i >.# # ' {  ._ #                         ",
"                      # X   # 2.{ 2.+                           ",
"                              . X #                             "
};
