/* XPM */
static char *_e88c9997f9a480aa205634973435daaZf5D8rZudcwga13u[] = {
/* columns rows colors chars-per-pixel */
"32 32 47 1 ",
"  c None",
". c #303131",
"X c #313131",
"o c #323131",
"O c #333131",
"+ c #343230",
"@ c #343434",
"# c #353535",
"$ c gray21",
"% c #1A6262",
"& c #515151",
"* c #535251",
"= c gray32",
"- c #545251",
"; c #545453",
": c #AB5141",
"> c #AB5242",
", c #AE5341",
"< c #AD5242",
"1 c #AD5343",
"2 c #AE5444",
"3 c #D36241",
"4 c #D36242",
"5 c #D66341",
"6 c #D56242",
"7 c #D66342",
"8 c #D66541",
"9 c #D66443",
"0 c #F39229",
"q c #F49229",
"w c #F59229",
"e c #F69329",
"r c #F79429",
"t c #F3F329",
"y c #F6F429",
"u c #F7F529",
"i c #F7F729",
"p c gray73",
"a c #DBBA82",
"s c #DBBB83",
"d c #DEBD84",
"f c #F3E49A",
"g c #F5E49A",
"h c #F7E79C",
"j c #FBFBFB",
"k c #FDFCFC",
"l c #FEFCFC",
/* pixels */
"                                ",
"                                ",
"                                ",
"                                ",
"                                ",
"                                ",
"                                ",
"                                ",
"                                ",
"                                ",
"                                ",
"                     $          ",
"         $XX        $4o         ",
"       $X0r5X       $45o        ",
"      $0rrrr5+      $45X        ",
"      $0rrrrr+     $59e5+       ",
"     $0rrr5er5+    $4eu9X       ",
"     $0rr5k@ee+    $4yu9X       ",
"    $0rrr<%X05o     $t9+        ",
"    $0rrrrXX49+     $5X         ",
"     $4ere55595o    $0+         ",
"      $X5595959o   $0r+         ",
"        $Xa99*49X $4e+          ",
"         $fh;:e55+555X          ",
"         $fh;e5*49-5+           ",
"        $:<gh*=455-X            ",
"        $p<*sd959<X             ",
"         $XXX*:4<X              ",
"             $j2k$              ",
"              $XX               ",
"                                ",
"                                "
};
