/* XPM */
static char *_0c7842cd61e4021ff609a51780c411153xYvxPLw40sbwG6[] = {
/* columns rows colors chars-per-pixel */
"32 32 80 1 ",
"  c None",
". c #2F2F2F",
"X c gray19",
"o c #313131",
"O c #323131",
"+ c #323232",
"@ c #343231",
"# c #343431",
"$ c #353531",
"% c #323536",
"& c #343434",
"* c #353535",
"= c #373535",
"- c #343536",
"; c gray21",
": c #373737",
"> c #383835",
", c #383836",
"< c #393837",
"1 c #3A3A37",
"2 c #363839",
"3 c #37393A",
"4 c #383A3B",
"5 c #3A3A3A",
"6 c #393B3C",
"7 c #505050",
"8 c #535250",
"9 c gray32",
"0 c #535352",
"q c #565654",
"w c #565656",
"e c #595956",
"r c #5A5956",
"t c #585858",
"y c #5A5A58",
"u c #5B5A58",
"i c #5A5A5A",
"p c #5C5B59",
"a c #5C5C5A",
"s c #827331",
"d c #877532",
"f c #8D7B35",
"g c #8E7C36",
"h c #8F7D36",
"j c #D4545E",
"k c #938137",
"l c #BE9741",
"z c #C19942",
"x c #CAA144",
"c c #CDA345",
"v c #CDA246",
"b c #D0A546",
"n c #D4A847",
"m c #D5A947",
"M c #D5A848",
"N c #D9AD49",
"B c #DEBF48",
"V c #E2C348",
"C c #F6D24F",
"Z c #F9D651",
"A c #FBD751",
"S c #FAD752",
"D c #F6F668",
"F c #F7F668",
"G c #F8F768",
"H c #F8F868",
"J c #FBFB6A",
"K c #FDFD6C",
"L c #FEFE6F",
"P c #FEFE70",
"I c #FEFE71",
"U c #FEFE72",
"Y c #FEFE73",
"T c #FFFF73",
"R c #FFFF74",
"E c #FFFF75",
"W c #FFFF76",
"Q c #F577A0",
"! c #FF85B3",
"~ c white",
/* pixels */
"                                ",
"                                ",
"                                ",
"                                ",
"                                ",
"                                ",
"                                ",
"                                ",
"                                ",
"                                ",
"                                ",
"                                ",
"                                ",
"         X5                     ",
"         ;i;                    ",
"         Xa0X                   ",
"         XNKw;                  ",
"         ;RRR;     5:;          ",
"         %TDs<X@ X#a0.          ",
"          ;dLRLx<xLN0X          ",
"          5TRRRTkTRRt4          ",
"         X~JDRJJRGJM.           ",
"         ;<LLRTTRb;62           ",
"         jRSTR~;RR;             ",
"          ;DDR@#!Q;             ",
"          ;ecSLT!%  X;          ",
"          5Teiwp<< ;;;;         ",
"           XBp8VnDX6%.;%        ",
"           ;iSCbhe5  66         ",
"           2chhh;2              ",
"            %5lz6               ",
"              45                "
};
