/* XPM */
static char *_e731124bde94d1ea99c54978c28a81cKYXVIznD5EaNpkf0[] = {
/* columns rows colors chars-per-pixel */
"32 32 84 1 ",
"  c None",
". c #313131",
"X c #333230",
"o c #333231",
"O c #323232",
"+ c #343230",
"@ c #343330",
"# c #353430",
"$ c #343431",
"% c #353431",
"& c #363531",
"* c #373631",
"= c #343434",
"- c #353535",
"; c #363634",
": c #373634",
"> c #373735",
", c gray21",
"< c #383835",
"1 c #383836",
"2 c gray22",
"3 c #393838",
"4 c #393939",
"5 c #56554F",
"6 c #515151",
"7 c #535151",
"8 c #535250",
"9 c #535351",
"0 c gray32",
"q c #545151",
"w c #545451",
"e c #565450",
"r c #575550",
"t c #575551",
"y c #575650",
"u c #555552",
"i c #B77629",
"p c #A16931",
"a c #A26B32",
"s c #F36252",
"d c #F76352",
"f c #F76451",
"g c #F76650",
"h c #B99122",
"j c #C1A129",
"k c #C3A228",
"l c #C2A229",
"z c #C3A329",
"x c #C2A22A",
"c c #C3A32A",
"v c #C4A328",
"b c #C4A329",
"n c #C5A429",
"m c #C5A529",
"M c #C6A529",
"N c #C7A629",
"B c #C4A42A",
"V c #C8A72B",
"C c #F0D031",
"Z c #F1D131",
"A c #F3D230",
"S c #F3D231",
"D c #F3D331",
"F c #F1D232",
"G c #F3D332",
"H c #F5D330",
"J c #F4D331",
"K c #F7D331",
"L c #F4D232",
"P c #F5D430",
"I c #F4D431",
"U c #F5D531",
"Y c #F6D430",
"T c #F7D530",
"R c #F7D431",
"E c #F6D531",
"W c #F7D630",
"Q c #F6D631",
"! c #F7D631",
"~ c #F4D432",
"^ c #F5D432",
"/ c #9A8240",
"( c #9E8641",
") c #FBFAF9",
/* pixels */
"                                ",
"                                ",
"                                ",
"                                ",
"                                ",
"                                ",
"                                ",
"                                ",
"                                ",
"                                ",
"                                ",
"                                ",
"           -.                   ",
"          =6.         -.        ",
"          -5.        >HN+       ",
"         -nn.    -=.@HnVn.      ",
"         -v/>  -=669Ennnv1      ",
"        1@v=  1EWe6nvVNv>       ",
"       1nEEW=@LEIennnnl1        ",
"      -Z!!WWW(EE9nnnnv1         ",
"      1Z!!WVZEW(.-lnn=          ",
"     -EWE!n)-LWW* 4lNv@         ",
"     4Z(E!!*9L!!!= *nv>         ",
"      =ZWW!!ddWE!E=vB>          ",
"     4h9lEEEgsEEWiea+           ",
"      4--lnEEe~IWEE6a>          ",
"         -Bn5ZEeEEi5-           ",
"         4lnE59~WEA=            ",
"          4lnIEEWE9-            ",
"           4->ZEEL1             ",
"              4.Z1              ",
"               4-               "
};
