/* XPM */
static char *image02_resize[] = {
/* columns rows colors chars-per-pixel */
"64 64 201 2 ",
"   c None",
".  c #040609",
"X  c #0E0E11",
"o  c #161317",
"O  c #130E12",
"+  c #1B1F22",
"@  c #1B3036",
"#  c #38272A",
"$  c #392A35",
"%  c #273538",
"&  c #2A272E",
"*  c #473633",
"=  c #56423E",
"-  c #2A3A42",
";  c #2C4C55",
":  c #334D54",
">  c #37555D",
",  c #30464E",
"<  c #355C67",
"1  c #3A6672",
"2  c #3C6975",
"3  c #3D6D7B",
"4  c #3F707E",
"5  c #3A616C",
"6  c #5C4B47",
"7  c #475756",
"8  c #555758",
"9  c #69524D",
"0  c #78564E",
"q  c #795C55",
"w  c #6C4854",
"e  c #76615C",
"r  c #696256",
"t  c #465D64",
"y  c #6E556A",
"u  c #456C76",
"i  c #49727C",
"p  c #577378",
"a  c #4B636A",
"s  c #696A68",
"d  c #6A726C",
"f  c #7B746B",
"g  c #707270",
"h  c #86635A",
"j  c #96695D",
"k  c #935877",
"l  c #876B65",
"z  c #827B6C",
"x  c #86706C",
"c  c #95736C",
"v  c #9B756D",
"b  c #8B786F",
"n  c #A8766A",
"m  c #B17B6D",
"M  c #B37E71",
"N  c #A1756B",
"B  c #7C827A",
"V  c #6D817F",
"C  c #888679",
"Z  c #948D7B",
"A  c #958B79",
"S  c #9D937F",
"D  c #A4847C",
"F  c #B78579",
"G  c #B68477",
"H  c #3F7281",
"J  c #427584",
"K  c #457B8B",
"L  c #4A7A87",
"P  c #537B84",
"I  c #577D88",
"U  c #467F90",
"Y  c #737C86",
"T  c #90718B",
"R  c #B06A90",
"E  c #BD7CA2",
"W  c #59828C",
"Q  c #4B8494",
"!  c #4E8A9B",
"~  c #528693",
"^  c #5A8A95",
"/  c #528C9C",
"(  c #5B8C99",
")  c #5D909D",
"_  c #68868B",
"`  c #758886",
"'  c #6A8B91",
"]  c #758D95",
"[  c #67939D",
"{  c #789393",
"}  c #518EA0",
"|  c #5292A4",
" . c #5B95A4",
".. c #5496A8",
"X. c #5599AC",
"o. c #5A9BAD",
"O. c #569DB1",
"+. c #599EB2",
"@. c #649DAB",
"#. c #689AA7",
"$. c #7399A4",
"%. c #5CA2B6",
"&. c #5CA5B9",
"*. c #5BA9BE",
"=. c #64A4B4",
"-. c #60A6B9",
";. c #62A9BD",
":. c #6DACBB",
">. c #6BA6B4",
",. c #73AAB8",
"<. c #6FA5B1",
"1. c #5DACC1",
"2. c #64ADC1",
"3. c #69AFC1",
"4. c #65B1C6",
"5. c #6CB2C4",
"6. c #6CB6C9",
"7. c #73B4C3",
"8. c #74B9CB",
"9. c #7ABDCD",
"0. c #74B7C8",
"q. c #76BED1",
"w. c #7DC3D4",
"e. c #7FC9DB",
"r. c #7AC4D6",
"t. c #868985",
"y. c #9D9989",
"u. c #999484",
"i. c #969998",
"p. c #8A8D97",
"a. c #A49A85",
"s. c #A49C8B",
"d. c #A59A84",
"f. c #BE938A",
"g. c #AB8C86",
"h. c #ABA18B",
"j. c #B2A58E",
"k. c #ACA492",
"l. c #B4AD9B",
"z. c #B6AB95",
"x. c #BAB29D",
"c. c #8F9CA3",
"v. c #8EACB5",
"b. c #A3A6AB",
"n. c #BCB4A0",
"m. c #A5A9B2",
"M. c #AEB4BA",
"N. c #C49C95",
"B. c #C1968E",
"V. c #C2B59B",
"C. c #C6B99E",
"Z. c #C4BAA3",
"A. c #CABEA3",
"S. c #C2BBA8",
"D. c #CEC1A8",
"F. c #D2C6AC",
"G. c #DBCCAE",
"H. c #D5C8AB",
"J. c #D6C9B1",
"K. c #DCCEB2",
"L. c #D5CDBA",
"P. c #DFD0B3",
"I. c #DED2B9",
"U. c #E4D4B4",
"Y. c #E8D7B7",
"T. c #E2D6BB",
"R. c #E8D9BB",
"E. c #88BDCA",
"W. c #B2BAC2",
"Q. c #86C0CF",
"!. c #83C6D6",
"~. c #83C7D8",
"^. c #84CADB",
"/. c #8CCBDB",
"(. c #85C8D7",
"). c #92CDDC",
"_. c #99CEDC",
"`. c #92C9D6",
"'. c #9DD1DE",
"]. c #8BC9D7",
"[. c #AFCAD4",
"{. c #84CFE0",
"}. c #86D1E1",
"|. c #96D3E2",
" X c #9CD5E3",
".X c #A5D6E2",
"XX c #ADDAE6",
"oX c #ACDEE9",
"OX c #A9D7E3",
"+X c #B7DDE8",
"@X c #B4E0EB",
"#X c #AFE0EB",
"$X c #C5CBD3",
"%X c #CED3D9",
"&X c #CDD2D7",
"*X c #E4DDC9",
"=X c #E5DBC4",
"-X c #EAE2CC",
";X c #D8DCE2",
":X c #C6E4EE",
">X c #F7F8FA",
/* pixels */
"                                            1 ( @.>.3.( ( L                                                                     ",
"                                        #. XoX.X{.{.{.{.{.^.!.(                                                                 ",
"                                    $.:X:X#X#X X{.{.!.{.!.!.!.!.!.W                                                             ",
"                                < v.:X:X+X#X X{.!.!.!.!.!.!.!.!.!.!.7.<                                                         ",
"                              a !.'.+X+X.X|.^.~.!.!.!.!.7./.!.!.w.w.0.:.                                                        ",
"                              7.,.~.|.~.~.~.~.~.!.!.!.#.E.9.E.!.8.5.5.5.@.                                                      ",
"                            t ) 0.~.^.^.^.^.~.~.^.!.).`.$.[.b.[ 0.5.5.5.5./                                                     ",
"                            i.@.!.!.!.!.!.^.~.^.!./.'.i b.>X>X% 5.5.5.5.5.6.u                                                   ",
"                            m.,.!.!.~.!.!.~.~./.~.{.7.o 8 >X&X&  .6.6.5.2.2...                                                  ",
"                          w - !.~.~.!.!.!.~.~.~.{.E.p o . + & % ^ 6.6.%.1.1.2.                                                  ",
"                          w - {.~.~.^.!.!.!.!.~.E.{.: O . . $ w ( 6.1.1.1.1.+.H                                                 ",
"                          k i /.~.!.!.!.!.!.~.~.^.E.& X . O R T / 1.1.%.+.1.1.H                                                 ",
"                          T <./.^.^.!.!.^.^.^.^.^.9.- # X w R m.! 1.1.&.&.1.+.!                                                 ",
"                        J y !.!.!.^.!.!.!.^.^.^.{.q.k R k E R $X..%.&.1.1.+.1.!                                                 ",
"                        /._.!.!.!.!.~.~.~.~.^.^.{.{.Y Y T T p.v.1.%.1.1.+.+.1.!                                                 ",
"                      P `.E.!.!.,.!.~.~.~.~.e.^.{.{.{.{.^.e.q.2.%.1.&.+.+.1.+.H                                                 ",
"                      > Q E.!.!.!.9.@.@.:.0.q.w.e.e.e.^.e.e.q.1.%.+.%.%.%.%.+.3                                                 ",
"                        %.Q 0.9. .Q / X.} Q K U H Q ! X.*.*.&.O.Q Q %.%.%.%.%.1                                                 ",
"                        H %.} !  .%.%.%.%.1.%.%.&.*.*.X. .! ! ! +.%.+.%.%.%.}                                                   ",
"                          Q %.%.%.%.%.%.%.%.%.1.*.*.*.&.%.%.%.%.%.%.1.%.%.1.<                                                   ",
"                            o.;.;.%.%.+.%.%.1.1.*.&.&.&.&.&.&.&.1.%.%.%.&.! d                                                   ",
"                            - +.:.3.;.%.%.%.&.&.&.&.*.*.*.&.&.&.+.%.%.%.X.c.p.                                                  ",
"                                 .3.3.2.&.&.&.&.O.%.&.&.&.&.&.&.%.%.1.} Y $Xb l                                                 ",
"                                  u ;.2.1.&.&.&.&.&.&.&.X.&.&.&.%.%.Q Y W.W.h F 9                                               ",
"                            : P o...7 W X.*.%.%.%.%.%.%.&.&.&.*.O.< p W ] c.q m F 6                                             ",
"                        i ,.!.^.8.` x.l.t.g P ! ..+.%.%.O.| Q > / 4.1.1.&.J 6 m m D                                             ",
"                  : [ E./.^.^.(.{ F.A.x.x.n.x.h.s.t.t.B C u.d 8.{.e.q.1.1.*.K 9 h G l                                           ",
"                _ '..X/./.^.^.,.D.I.T.F.n.x.x.x.x.x.l.k.x.C :. X X^.e.6.1.%.;.a N 0 v 6                                         ",
"            u Q.OX.X/.^.^.^.0.C I.*X-X-XI.A.x.x.x.x.x.k.k.W |.#XoX{.e.q.6.1.&.K j m 0 h                                         ",
"          #.!._._./.^.^.^.^.{ z.l.*X-X-X-XI.D.x.x.x.x.x.g r..X#X X{.e.w.0.%.&.O.q m m h                                         ",
"    E.9.9.!.w.!.!.^.^.^.!.7.V.R.=Xl.l.I.-X=XK.K.D.C.x.l.W (.'.).^.^.^.^.8.*.*.&.6 m m M *                                       ",
"    i %.%.( E.e.!.^./.^.^.{ U.=X-X-X*XM.l.y.Z s.C.F.C.f w.(.(.{.!.^.!.^.6.1.*...8 m m G c                                       ",
"    + +.) ,.(.w.}.e.}.(.w.y.U.-X-X-X-X-X-XU.C P.V.j.f.p !.{.!.!.!.!.!.w.:.:.5.Q t.j M F B.#                                     ",
"    5 %.X.2 W w.e.}.e.{.=.A.U.-X-X-X-X-X=XP.S Y.U.U.D.#.!.9.#.!.!.!.!.8.5.5.:.I M.j M N.N.q                                     ",
"  p 0.&.&.&.&.*.r.r.w.r.p P.R.-X-X-X-X-XI.P.S Y.U.U.s.7.!.I $.>.!.!.9.5.5.5.=.p.M.j F N.N.l                                     ",
"  : i Q } O.&.&.*.O.&.+.7 z.Y.-X-X-X-X-XU.U.j.Y.P.U.y.!.#.8.;.( !.8.5.5.5.:.I W.b.N F N.N.g.                                    ",
"              , @       C S Y.R.-X=XR.U.U.U.S Y.P.F.' (.8.;.+.7.7. .( =.5.W b.[.b.m G B.N.g.                                    ",
"                        S h.U.Y.=XI.U.P.U.P.S Y.P.t.!.:.;.;.+.3.:.5.E.~ ^ g W.%Xg.M M B.N.D                                     ",
"                        j.F.x.R.=XY.U.U.Y.A.z.Y.x.i ) O.;.%.1.%.%.*./ P C i.W.;Xx m M B.B.c                                     ",
"                        S Y.s.P.U.U.R.U.Y.V.A.U.P.D.x.u.I | +.+.%./ ` k.y.m.W.;Xq m M F G 0                                     ",
"                        h.Y.z h.s.z.P.P.P.j.U.U.T.J.K.K.F.k.g d C k.x.x.u.m.W.;Xq N M G n #                                     ",
"                        A U.S P.P.C.S y.h.e h.V.F.J.F.J.F.K.y.K.x.l.x.l.Z b.W.%Xe c m m h *             i ( ,.9.:.~ J           ",
"                        r V.x.P.P.U.U.U.P.S H.x.j.g.s.s.k.s.f A.n.x.x.x.s.p.M.&Xf c v N h *         ^ !.!.!.!.!.!.!.3.}         ",
"                        % A P.P.P.P.P.J.G.S P.U.I.P.K.K.I.K.Z.Z l.l.l.l.z.t.W.$Xf v l 0 l         @.!.!.!.!.!.!.!.!.2.%.X.      ",
"                        ,.d U.U.P.P.P.P.P.S P.P.P.P.P.P.I.F.S.y.y.l.y.C t.7 m.[.T l 9 c q       #.!.!.!.!.!.!.!.9.5.1.%.%.K     ",
"                      <.).' P.U.U.U.U.Y.P.y.P.U.P.P.P.P.K.S.l.l.f _ ,.(.(.w.#.{ b.6 c v =     Q w.!.!.!.!.9.q.6.2.%.%.%.%.%.    ",
"                    t .X'.!.y.U.P.U.U.Y.U.S P.U.P.U.P.J.S.l.l.s.$.{.{.^.^.^.^.w.p.e c l     3 -.2.3.3.3.2.2.1.%.%.%.%.%.*.%.1   ",
"                    c.XX.X'.[ C.P.U.U.U.Y.h.P.U.Y.U.H.Z.l.l.l.' {.{.^.^.^.^.^.(.=.8 c 9     X.*.%.%.1.%.%.U H K K ..%.%.%.%.2   ",
"                  p oXOXOX X!.g A.D.H.P.U.h.C.P.H.C.V.x.l.n.B 9.{.!.!.!.!.!.!.!.9.t c     | &.&.1.1.1.&.H O.1.+.&.! +.1.+.+.J   ",
"                  { oXoXoX'.^.8.C x.x.n.C.C C x.x.x.x.x.n.l.#.!.!./.{.!.!.{.!.{.^.Q *   ..&.*.*.1.%.&.Q O.1.+.1.1.+.+.+.+.-.2   ",
"                  v.oXoX.X^.{.w. .t.s.Z Z k.h.B h.x.x.x.x.f !.!.{.!.{.!.{.{.{.{.{.2.; X.1.&.*.*.*.*.1.H +.1.%.1.&.+.&.1.%.%.H   ",
"                  _.oX X{.{.!.0.-.Q C n.x.x.x.x.C z Z z.Z.p {.{.{.!.!.!.!.!.!.!.^.2.3 1.&.1.*.*.*.1.*.3 1.&.1.%.+.1.&.+.%.%.;   ",
"                  e.{.{.{.e.8.3.-.%. .B x.z.l.x.x.x.h.C z a !.!.!.`._.!.^.^.^.{.e.4.H 1.*.*.*.*.*.*.1.H 1.1.1.+.%.%.%.%.1.}     ",
"                  9.{.e.q.6.3.;.%.%.%.O.7 C l.x.x.x.x.x.x.d !.!./..XXX`.!.!.!.{.e.6.H 1.1.&.*.*.*.*.1.H X.&.&.%.1.%.%.%.%.;     ",
"                  6.0.6.3.2.;.+.%.*.%.Q       z C z Z C C d #.!.!.'..X).!.{.e.e.r.1.H 1.1.*.*.*.*.&.&.+.H ..+.&.%.%.%.%.3       ",
"                  +.4.3.2.2.%.+.%.%.%.                  8 d , 9.!.E././.!.!.{.e.6.1.H 1.*.*.%.%.O.&.&.&.O.H H &.%.%.O.3         ",
"              > 7.7.5.2.%.%.%.%.%.%. .                        #.!.E.E.!.!.!.!.q.2.%.3 K ..&.%.%.%.%.%.%.+.&.! J K < @           ",
"              L P 9.7.2.%.%.%.%.%.+.3                         < 4.q.7.4.q.6.4.1.1.%.H       3 3 Q ..+.+.O. .Q 1                 ",
"                J >.~  .1.%.%.Q 1                               +.;.2.2.-.-.+.2.%.*.J                                           ",
"                      3./ <                                     K +.+.+.+.1.+.+.%.%.u                                           ",
"                      ;                                         J ;.%.%.&.+.+.2.%.%.K                                           ",
"                                                                u 0.2.+.2.2.2.+.%.-.;.                                          ",
"                                                                > W 2 J >.E.4.U 2 P @.%                                         ",
"                                                                          J i                                                   "
};
